<svg xmlns="http://www.w3.org/2000/svg"  viewBox="0 0 64 64" width="64px" height="64px"><linearGradient id="oW~p_RiaEY0sx0g_n0VfFa" x1="30.5" x2="30.5" y1="21.425" y2="35.294" gradientUnits="userSpaceOnUse"><stop offset="0" stop-color="#6dc7ff"/><stop offset="1" stop-color="#e6abff"/></linearGradient><path fill="url(#oW~p_RiaEY0sx0g_n0VfFa)" d="M27.31,36.5c-0.703,0-1.363-0.283-1.86-0.795L20.5,30.57l2.478-2.554l4.333,4.497L38.022,21.5	l2.478,2.554L29.17,35.705C28.673,36.217,28.013,36.5,27.31,36.5z"/><linearGradient id="oW~p_RiaEY0sx0g_n0VfFb" x1="32" x2="32" y1="6.872" y2="55.649" gradientUnits="userSpaceOnUse"><stop offset="0" stop-color="#1a6dff"/><stop offset="1" stop-color="#6341A8"/></linearGradient><path fill="url(#oW~p_RiaEY0sx0g_n0VfFb)" d="M51,15.924v-2.719C51,10.335,48.665,8,45.795,8h-32.59C10.335,8,8,10.335,8,13.205v32.487 C8,48.619,10.381,51,13.308,51h2.616c0,2.757,2.243,5,5,5H51c2.757,0,5-2.243,5-5V20.924C56,18.167,53.757,15.924,51,15.924z M13.308,49C11.483,49,10,47.517,10,45.692V13.205C10,11.438,11.438,10,13.205,10h32.59C47.563,10,49,11.438,49,13.205v32.487 C49,47.517,47.517,49,45.692,49H13.308z M54,51c0,1.654-1.346,3-3,3H20.924c-1.654,0-3-1.346-3-3h27.769 C48.619,51,51,48.619,51,45.692V17.924c1.654,0,3,1.346,3,3V51z"/><linearGradient id="oW~p_RiaEY0sx0g_n0VfFc" x1="20" x2="20" y1="6.872" y2="55.649" gradientUnits="userSpaceOnUse"><stop offset="0" stop-color="#1a6dff"/><stop offset="1" stop-color="#6341A8"/></linearGradient><path fill="url(#oW~p_RiaEY0sx0g_n0VfFc)" d="M16,18v6h2v-6h6v-2h-6C16.897,16,16,16.897,16,18z"/><linearGradient id="oW~p_RiaEY0sx0g_n0VfFd" x1="39" x2="39" y1="6.872" y2="55.649" gradientUnits="userSpaceOnUse"><stop offset="0" stop-color="#1a6dff"/><stop offset="1" stop-color="#6341A8"/></linearGradient><path fill="url(#oW~p_RiaEY0sx0g_n0VfFd)" d="M41,41h-6v2h6c1.103,0,2-0.897,2-2v-6h-2V41z"/><linearGradient id="oW~p_RiaEY0sx0g_n0VfFe" x1="29.5" x2="29.5" y1="6.872" y2="55.649" gradientUnits="userSpaceOnUse"><stop offset="0" stop-color="#1a6dff"/><stop offset="1" stop-color="#6341A8"/></linearGradient><path fill="url(#oW~p_RiaEY0sx0g_n0VfFe)" d="M47,43.871V15.129C47,13.403,45.597,12,43.871,12H15.129C13.403,12,12,13.403,12,15.129 v28.742C12,45.597,13.403,47,15.129,47h28.742C45.597,47,47,45.597,47,43.871z M45,43.871C45,44.493,44.493,45,43.871,45H15.129 C14.507,45,14,44.493,14,43.871V15.129C14,14.507,14.507,14,15.129,14h28.742C44.493,14,45,14.507,45,15.129V43.871z"/></svg>